<?xml version="1.0" encoding="UTF-8" standalone="no"?>
<!-- Generator: Adobe Illustrator 17.1.0, SVG Export Plug-In . SVG Version: 6.00 Build 0)  -->

<svg
   xmlns:dc="http://purl.org/dc/elements/1.1/"
   xmlns:cc="http://creativecommons.org/ns#"
   xmlns:rdf="http://www.w3.org/1999/02/22-rdf-syntax-ns#"
   xmlns:svg="http://www.w3.org/2000/svg"
   xmlns="http://www.w3.org/2000/svg"
   xmlns:sodipodi="http://sodipodi.sourceforge.net/DTD/sodipodi-0.dtd"
   xmlns:inkscape="http://www.inkscape.org/namespaces/inkscape"
   version="1.1"
   id="Layer_1"
   x="0px"
   y="0px"
   viewBox="0 0 612 612"
   enable-background="new 0 0 612 612"
   xml:space="preserve"
   inkscape:version="0.48.4 r9939"
   width="100%"
   height="100%"
   sodipodi:docname="logo.svg"
   inkscape:export-filename="E:\User Files\Documents\Visual Studio 2013\Projects\BootstrapSnippets\BootstrapSnippets\logo-big.png"
   inkscape:export-xdpi="35.294117"
   inkscape:export-ydpi="35.294117"><metadata
   id="metadata2995"><rdf:RDF><cc:Work
       rdf:about=""><dc:format>image/svg+xml</dc:format><dc:type
         rdf:resource="http://purl.org/dc/dcmitype/StillImage" /><dc:title></dc:title></cc:Work></rdf:RDF></metadata><defs
   id="defs2993" /><sodipodi:namedview
   pagecolor="#ffffff"
   bordercolor="#666666"
   borderopacity="1"
   objecttolerance="10"
   gridtolerance="10"
   guidetolerance="10"
   inkscape:pageopacity="0"
   inkscape:pageshadow="2"
   inkscape:window-width="1680"
   inkscape:window-height="987"
   id="namedview2991"
   showgrid="false"
   showguides="false"
   inkscape:guide-bbox="true"
   inkscape:snap-global="true"
   inkscape:zoom="1.0907007"
   inkscape:cx="326.05524"
   inkscape:cy="235.43167"
   inkscape:window-x="-8"
   inkscape:window-y="-8"
   inkscape:window-maximized="1"
   inkscape:current-layer="g3798"><sodipodi:guide
     position="0,0"
     orientation="0,612"
     id="guide3800" /><sodipodi:guide
     position="612,0"
     orientation="-612,0"
     id="guide3802" /><sodipodi:guide
     position="612,612"
     orientation="0,-612"
     id="guide3804" /><sodipodi:guide
     position="0,612"
     orientation="612,0"
     id="guide3806" /><inkscape:grid
     type="xygrid"
     id="grid3808" /><sodipodi:guide
     orientation="1,0"
     position="30,550"
     id="guide3810" /><sodipodi:guide
     orientation="0,1"
     position="120,580"
     id="guide3812" /><sodipodi:guide
     orientation="1,0"
     position="580,470"
     id="guide3814" /><sodipodi:guide
     orientation="0,1"
     position="240,30"
     id="guide3816" /></sodipodi:namedview>
<g
   style="display:inline"
   inkscape:label="Background"
   id="g3790"
   inkscape:groupmode="layer"><g
     style="fill:#373737;fill-opacity:1"
     inkscape:version="0.48.1 r9760"
     sodipodi:docname="twitter_bootstrap_logo.svg"
     id="g3792"><path
       style="fill:#373737;fill-opacity:1"
       d="m 612,510 c 0,56.1 -45.9,102 -102,102 H 102 C 45.9,612 0,566.1 0,510 V 102 C 0,45.9 45.9,0 102,0 h 408 c 56.1,0 102,45.9 102,102 v 408 z"
       id="path3794"
       inkscape:connector-curvature="0" /></g></g><g
   style="display:inline"
   inkscape:label="Bootstrap"
   id="g3802"
   inkscape:groupmode="layer"><g
     style="fill:#563d7c;fill-opacity:1;stroke:#ffffff;stroke-width:11.66666698;stroke-miterlimit:4;stroke-opacity:1;stroke-dasharray:none"
     transform="matrix(0.86799373,0,0,0.86799275,188.09694,35.620258)"
     enable-background="new    "
     id="g3804"><path
       style="fill:#563d7c;fill-opacity:1;stroke:#ffffff;stroke-width:11.66666698;stroke-miterlimit:4;stroke-opacity:1;stroke-dasharray:none"
       inkscape:connector-curvature="0"
       id="path3806"
       d="m 166.3,133 h 173.5 c 32,0 57.7,7.3 77,22 19.3,14.7 29,36.8 29,66.5 0,18 -4.4,33.4 -13.2,46.2 -8.8,12.8 -21.4,22.8 -37.8,29.8 v 1 c 22,4.7 38.7,15.1 50,31.2 11.3,16.2 17,36.4 17,60.8 0,14 -2.5,27.1 -7.5,39.2 -5,12.2 -12.8,22.7 -23.5,31.5 -10.7,8.8 -24.3,15.8 -41,21 -16.7,5.2 -36.5,7.8 -59.5,7.8 h -164 l 0,-357 0,0 z m 62.5,149.5 h 102 c 15,0 27.5,-4.2 37.5,-12.8 10,-8.6 15,-20.8 15,-36.8 0,-18 -4.5,-30.7 -13.5,-38 -9,-7.3 -22,-11 -39,-11 h -102 l 0,98.6 0,0 z m 0,156.5 h 110.5 c 19,0 33.8,-4.9 44.2,-14.8 10.5,-9.8 15.8,-23.8 15.8,-41.8 0,-17.7 -5.2,-31.2 -15.8,-40.8 -10.6,-9.6 -25.2,-14.2 -44.2,-14.2 H 228.8 V 439 z" /></g></g><g
   style="display:inline;opacity:1"
   inkscape:label="Visual Studio"
   id="g3798"
   inkscape:groupmode="layer"><path
     style="fill:#68217a;fill-opacity:1;stroke:#ffffff;stroke-width:10.12658215;stroke-linejoin:miter;stroke-miterlimit:4;stroke-opacity:1;stroke-dasharray:none"
     inkscape:connector-curvature="0"
     id="path3800"
     d="m 254.18008,151.06329 76.75658,30.91848 V 430.00962 L 253.46401,460.93671 130.2238,338.67444 52.052351,399.10837 21.063291,383.64912 V 228.35089 L 52.052351,213.59748 130.2238,274.72861 254.18008,151.06329 z M 52.052351,259.97519 v 94.15848 L 98.53593,306.35292 52.052351,259.97519 z m 121.135139,46.37773 80.28515,63.2486 V 243.10431 l -80.28515,63.24861 z" /></g>
</svg>